<mxfile host="Electron" modified="2024-05-31T20:33:01.377Z" agent="Mozilla/5.0 (Windows NT 10.0; Win64; x64) AppleWebKit/537.36 (KHTML, like Gecko) draw.io/24.1.0 Chrome/120.0.6099.109 Electron/28.1.0 Safari/537.36" etag="xFccaHTL4IcJD0o09ccf" version="24.1.0" type="device">
  <diagram name="Страница — 1" id="wf0QnUmDEf2SmamhXVNu">
    <mxGraphModel dx="892" dy="781" grid="1" gridSize="10" guides="1" tooltips="1" connect="1" arrows="1" fold="1" page="1" pageScale="1" pageWidth="827" pageHeight="1169" math="0" shadow="0">
      <root>
        <mxCell id="0" />
        <mxCell id="1" parent="0" />
        <mxCell id="h6_h1Xozg2ynOmpZFOEC-2" value="BackEnd" style="verticalAlign=top;align=left;spacingTop=8;spacingLeft=2;spacingRight=12;shape=cube;size=10;direction=south;fontStyle=4;html=1;whiteSpace=wrap;" vertex="1" parent="1">
          <mxGeometry x="130" y="260" width="180" height="240" as="geometry" />
        </mxCell>
        <mxCell id="h6_h1Xozg2ynOmpZFOEC-3" value="" style="shape=image;verticalLabelPosition=bottom;labelBackgroundColor=default;verticalAlign=top;aspect=fixed;imageAspect=0;image=data:image/png,iVBORw0KGgoAAAANSUhEUgAAAHsAAAAfCAYAAADHorIzAAAAAXNSR0IArs4c6QAAAARnQU1BAACxjwv8YQUAAAAJcEhZcwAADsMAAA7DAcdvqGQAAAkjSURBVGhD7ZsNUFNXFsf/CQkBEpaAWAWxIF/rFuv6sSh1KaC1WkBpEcfV0rVWR4w6bcdu7c5U0bJlmLU61VWxWrF1pyriFHTbgh0/Cla7a6ugnSk7rZVRUfxE4kfErEqy577cJO+RBIIL7mbJzznce+499yPvvHvufS9RZibgpVcg56mXXoDX2b0IhzB+/vx57NmzBydPnkRbWxsv7T1on5qNH66auOYZKH3kSIrvg5lPR2JQPw0vdUTi7MbGRhQVFcFoNPKS3ocnOttKgEqB1TOHIaa/c4dLwnhFRQVaW1vB/G8ymbyph6V3jPfxcc0Z7k1HJM5moZvBGovx6p6jH/25mecckTjbepd4xXOlrc31FiRxNjMW49U9W2+Pg7O94vniComzvbjP4lfT8P5TXPEQJI9eubm5wp0hk8l4iWW1/zf1jCWbkftEANBaj+1zi1Dpql5CE2py38JmyrH+8lbtQFq4pUbgYg1yF7Nax/GCkl5B/TX76hDXv/Xas0i9fQqZH5/D4oUp6H/8a7xxNBJrlkQDNdVY9PfOP8+j0L9+dwLXpLhc2ayRmB7R897Djh0leDvdlX0GhkUGwGAw0ENkFIaRnRWrvVk4kJxDZWoq0tLSkEppZeMApG3fLPTLKNZReXEdDPSvrpjsdMUuxrPjTC9a/i4OBMTj0J/GYAiVhY4aSxc2HiG1m7DgUNf7E9PdujOcnsYfWSo4yiScIJ3WP/drRKkNOL39CLlTjajh6Y52wszl8AsPR1hYGMIp/WhBJdkH2OwVairXKARLhYbs1ArHftxI5cGjsKKgAAm/a4K5nwp99EcpX4Cpu2Oh9HG/n55OXWG5Al1h3iqUpgWjnh7eB6Ul0CW10Fq/DXMKK7nGEWwHcIWgULxtTiEEq4yl2DJuoFA89OVSlL7Mck2onvEmPhRKaeGPGwK14SROHNyMAenPITJqGDKpdbtRHPANbMYNCgaRQeLY3T0sKViOSX1v40yTEc1Bo1FfloS6qoN4nUK4O0yf/QwWRtsvu8H4ABrcQnHhMezkZUACthVGIJJrwB18sfQIVnDtYen6aZzuHoqpSEhsw7aUFKQwWV8HU8JLWDXPbpe5tIQcbUKl1Yak8noCXipZikxm89nbeKHqHPVFoXW91SYP66zjmPMQR/eJoeEE9sqV2PgT2aoHUSi3j8HEirjMbB6IPhpq29JoL+N2ZCmy65r88fWJSNXvwxPTduF7HxmaD2+k/CmEZIzDmjHO24iFtV8YfQvl0wqonUX268nxpnsw2ewS8AlzdNMJm83KeiUmFbo3BhNXOOzZ7Y0ddfaXHLQtHwesofNQAY40AgPi5nH7eRiboMa5Kh1KeGhlsuVL2jfVtPdmkImPP0L8LMMrAi314eGBUFrH08UhgsY5fbxKmKTvBwdQZ1Bj0IhMSz1HOjs2v0zkbxlHbc/hSH6Vw/z5B7DR+ee164XLCpC8zogQugvZnGR+cQiOrUfOtI2Yf8hi47L9bxOR2hdoqN6NlXGjqQ+LnL8l/R5i+px+iEIzygsbhPrg2FHYvek7fHtHiZGJQ7o03/ZInC2O/VZx0LmtQqViDSz1MhUu6SluavtgEtPT+0BLNpEZldhdVoadO3cKUjF3BIUsUX/Wzsyi/vl4ebERdO46jPwqmaVOsRcnTxugHjIWedyWiWVCAzGej1FW9nskmGuxPnk+NtIUbfO3XQPR+CSdfl6RLtcmQk17P8sXLt8I3SFWr4YqJgYKeSft+yoQCCNaboZBLqoHP0mziMn0x9VKitr3cEEbYGsP9XVcvkVGal9M72B+Vt0VDiv7YaGoJlx4YSghNaB2XTKSk9tLNpZ8zow6Qod48jUi0/F5+S7s2sXkU8wexr7NiUD8fMFIxFl8IR4j+x3UhGvgy2t7AkVIHHy7cuIRnEAXyceiukQwkzNLEUp+T5AzBf3hkDib3RWdilPbSRgeQ47QX8bfmP7ZZbTQGh48Nk8I81LRwk/O2znti2R+PLm0nQMFWY9aCiARcTq7rdCDD1TiMbR+7AWCtE8SRvuyRyYXW+kYJkxAUm6D62duUlgP8EeUyMZsHoSwX5DNTQO2S8qdiyu6ZWVPXp6DJ+kRqXZvsaVDn2Lsq2MhdybWLBBMOJOxfOsa2Bbm2RZa/xqE2I+dBNmMYiH8J2wWO1CQaiGUIyLe3sf/IlNT8Y8/Z2L/3GheQBy5iB/vqJD4bBJe5EVITsIr8bTXiNixtgENCELWH4byEuDFubFIDDDi6OHa/8hhkjdoU6dOFe4M9kbGZap7H+XjH+ctrJCj12ZhWXWIsGqZXVtrC64u/AjfZEZxG07jl8h6o0Q4iMlMRozPL4NuhPXL9gs4uFWPpFlP4tq+LLz5oa/D+G0Tl+CTucOh/yoHizbIMGnZVswa2oL9OYuwSTxPUbpgbTmeET0Boukgcl7b4GDHUusbNGf9uJ3mPI2jo7W4feoHjC85w8vv4f4VNTZ8MBFJ1ufVu5dQ0RCMKdF6/OWd4ygV7G7jXw2/RHn5CMRwM1Cc/DTnryiKihOe5zsb/9v3JvN2UiTOzsnJ4bkOmL+anB1Czp2AV20Phn7QPhYM//b70X0DLjXf5gonMBRhGjqEcEx39bhyw3oiDUToYz4wXL0BZWgYRGZ22u5CL6q3tFciNExDO5tz7hsuQTKNdnMQ0y2/VDFexI2mC1D2G04HOvE493Hvygm0UnAS0MRgxYpZeMH8M0at/lG0TxtgbPgnHeesRJBpuNsvRdxy9pQpU3iuAxasQQU5+/stM1HQ2dsND6Qnf5aUq0vH8y17QY/pFlLG4ODkUFz9Zgdm7HH+U6KH4buVWTwnpdtO417coM2EqMQswRmCkKOvfZWP7J3d5+iOkKzs7OxsnusACs2Xrz+Ati+dqjt7jPBAenJlmw2ncfOKnmsW/AYkws+PK93EsVXP85wUycqWy+XCBs9wmSrU6N9fCxUdxAS9M3tvaktlmlgERf8G2phEW6pSud/enZTOaC6ROHvkyJFCI694riT/qj/3piMSZ8+YMQP+/v5CI4Y39ayU/W5cN3GwkHeGZM9mnD17FqWlpTh27BgePHjAS3sPnvo/QlKGhGHehMGIDQ/ipY44ONvL/yvAvwGY/jeLkruCVwAAAABJRU5ErkJggg==;" vertex="1" parent="1">
          <mxGeometry x="140" y="300" width="150" height="37.8" as="geometry" />
        </mxCell>
        <mxCell id="h6_h1Xozg2ynOmpZFOEC-4" value="" style="shape=image;verticalLabelPosition=bottom;labelBackgroundColor=default;verticalAlign=top;aspect=fixed;imageAspect=0;image=data:image/png,iVBORw0KGgoAAAANSUhEUgAAAHgAAAAeCAYAAADnydqVAAAAAXNSR0IArs4c6QAAAARnQU1BAACxjwv8YQUAAAAJcEhZcwAADsMAAA7DAcdvqGQAAAiASURBVGhD7Vt7VBTXHf72JcKiPKTALiokG6oG26Yx6ClaDLY2EWxE7UNak5hj5KF48kdO2kaxBENNQk0lFWISsSe2pCjUpKRqz8E0hNjU2DQbehrSxkdkDTEa3rooAXa3v3vnzu7sILBWaAT2O/y48/3udx8zv7mPGQaNiwA/xiy0IvVjjIKP4KamJlRXV8NqtcLhcIis8YmAeetwuqVXsNEBvVaDpBlfwn3JsYiLNAqvBI3NZnNt27YN3d3dwjW+MRoDLCMoQI8d990GS3Sw8AC62NjYx86ePcuJvByP51Q/dQ5au/rcfDSlPb0OtNp7sGh2FOcM2vr6en4gi2T4+ejkb59s4akMrdPp5Jl+GxvmdHoHXsucSvj52OI8wH4bW6bEDfwc/CCKystRlCmoT0jFphfKUV70oOAjhVj86tFv4BHBbmTwEaxeh28M7gR7Inc4rqU8lWE3sNMxQP718OkU1G9jbzrjfdyk/FnYW0DB7qf/4rgSXiNYnflFczWGLi8OBK61vcH5KazPPYLmmYvx5uZpiCDP7I2LUbc1Ep/9thLbiA9ve9fPGdy76BsvFZ2lUembXkrph8NXve+pDoboz7EhtwAJ1ZcwJSgErlN0/MPnkPuBmV1IH+sZ+VQJzapVq/qHXY2s7ai4E6h9A0i5M0Y4gcsN5VhbGIPtFSlwe8/VIuPhFwSRkJa3B6sTggSTyx0STEamdz0CH7+egZ/sFoSgrsu7vVQ8uvtefLXjL8h4pEy48rDn3gQoSgzQvoTB32TF4Zm8GbjddRFnnD1AVwRuiuzCwby/4imhGByi/ERB0Qd7t57O4UMs+U2j8BGSEvHn1HC430d1t6G08B3sE3QoHC28Sxz5uovmd0UMUuIbkJycLNlhG4ISVqOiIh4Nsi/5EGzmFJTlpbnLpuWVUUCcsJZ4NC2s3NOZnvqX5KGMghv6XqnQiLp4F4WGLPPpCqyOO4FSt6YU1pAURV28AEFRLwW35bCsJyuxwhlidtfpu8WimIIT/o8C3Jr7H7Ro9PhnPh3v7cTCwvn46VXLKC0Bvyuk4La/h1t/QOW4nUAzBdvlUOwZku7gwXU11Lh1B9rDscGnNiRTgq/Bamd/zn7bcCjzOZjNZphMJpjLPuQBsB3Owi7GyW82N6PDDhjpAkrIQkqCEXbrSyioY/nM9iCHbg6Y52JLqqTK/FYCjHYrXnqszlO/OcC9QeD9Sd2CuWY7rOX5eMPdXh0K3mJ1xVNLCsjdnxYCah3tF2Q9WV0BlmfuFAIJQ58/4yeRs6EAK1+Zh7AoIzTk0YbPQ/gHtVjw/f0o5EoJVyu/am0Ujd8WHNh6GmG3zEV4PJWN70NLF1dwHcPPEqcguOsMdj//udDMQ1GBFR/ReF64No5rhuqvEl5rsGz9uCRFgFHvyddreQC0AUYY3PqD+KydnLRucr5kCkKJtrUdQYBGrk8P4/kOuuxGTJ7KeBoimKi9FTUByrWTfAzyGjx1MpUIxu1Z1ajavx/79u0jq0T1d2KZCA5et+dEeVvPNKCRynztAaGnke7UBCAs2CDlCxvy/DnXQR+ZiIAJjJ9C9oY/oJDla8NgvMXE1+DByk83GmhK70FTaJAiX0eLJHWWui3xWESzPwZddKDSqBM+J3RhOrTSjTDJGMj51fvn4UoM83OwlvfXDeo4u+QajaoZrVDxeAgRlRy0M1zTiIMLFmBBP8tCCRepMGEX1vP8ErxLMwtiFqGyshKVO7Kl/P8ZBkyINoNWT9/BL4Tq+vQDBYslGp3qWlBL/EbwDp4v8G0NFmK1X3i9/Urfq+fRRiw8cqm3ZnoYjSs72hoZr8Z5NurV9ZBJELyxjUrE4bbHTXwK9zZpFuE6ZRmXAUaeX4v8dOlmKLFSpGO+jGxZ/3+yM53iz7Eqv3AKfhKfdBKdHIQML10wImiXeLGzU+Eb2JQY5hGsgq4UNXRBjV9ZifylwoccFC+aRov3UWzmG1ktSv9NO8hpi1G8ngs4cooXg1QeHNqMo7TcTk15UVEXA9X3Yj6+K5gX1hejqjiHDrQIDJNuhlmRtDe1t4oN3Ajhewtx7Mk0HFl3s3AAv3+/GReDovGAwvejdTOQqNze08zwi6NnSBeFNQrdpodjcROa8dqvFTttH6GXo67RaAZNOdh87/az+45Ax2zt89IR2LHLpcfhLctw5fFqbLy/ClX3S3l2607M33SE1hsDaTTQl2Rhfu/zeCuNNCmS5uOag2iMWcqmGKl+7UTsykzC6SdqkKuoi8FeX4Y/sj6p29/xLzS+ejeqqhYJL8H+LnYu24LasCCuV58nM7aOqf3XlPZJj1kuh/y2i/x/ex1Jl76JY2tmUfBn8fxLJ97H212zkeAewS7ojr+JpMsuLx0uf4SnVr6GSovJPVMN1r4SmhUrVniP6auh145PW4AIUzDdYzJ6YZecoD2LG732T2mvGAGTwum80o4LHZ4vRiaGRiEsUDV58DYuCUIbiogIoKV//eq6GDz1OXGl4wI69HL7Uh89tRICQxEVGjjg1DUsX3R0n0PHJ00wRH0dRmXn+1rRZTtNvZJgiFqDPz1rgevYy8h4ZWAdgi0IiZoyxPrtwfEiz3ymWb58+dABHkcYuU92LHh263Sc+3mt+5Hqx9l34yFLJ17eeAxPul9+XD/+/st7xNFIr8F+KOCA0zUJ99DFZwFg9pDFjqoVB1A4jMFVQ5Oenu4fwQqM3AjuRc+Felxmj2tuxGCSxQx6Gh5WvLN9mTiiEUzgizODPx3J1ABD5B0ItSQi5GY5NfHg+lbet1Qrv2MQ0M6ZM4dn+G1s2PyZni8qGbQZGRkIDAzkmQz+dPSmxokGZN81k3MZ/D8bbDYbf1d7/Phx9PVJ3wSPV4zGD98NOi0WzjYji4JrMU0WXgn+fz4b0wD+C+9Q8WF12QABAAAAAElFTkSuQmCC;" vertex="1" parent="1">
          <mxGeometry x="140" y="350" width="150" height="37.5" as="geometry" />
        </mxCell>
        <mxCell id="h6_h1Xozg2ynOmpZFOEC-5" value="" style="shape=image;verticalLabelPosition=bottom;labelBackgroundColor=default;verticalAlign=top;aspect=fixed;imageAspect=0;image=data:image/png,iVBORw0KGgoAAAANSUhEUgAAAHMAAAAdCAYAAACZvVPMAAAAAXNSR0IArs4c6QAAAARnQU1BAACxjwv8YQUAAAAJcEhZcwAADsMAAA7DAcdvqGQAAAeiSURBVGhD7Vp9UFTXFf/tssvHLtSFLLELSFGQZALJJCHgF8WvZhwFNCszFtKoSRhBTJ38kWY6bUGSdOvUaqITo9KMTp3RRsQkkETWNGiN0bQYBySTkLEiVaQmakH8WARBdnvuffe9fauUZdO1I7I/PZx37v3dc96+396PXdC4CAjgnoBW+ADuAQTEvIfgscy2t7ejpqYGTU1NGBgYEK33NqKnPIPjF3UiGhnQaTWY8oAZS7ISMP5+o2hVidnW1obVq1fjxo0bvGO0YCSKKSMsOAjrlz6GpB+G81hZZqurq9HT0wOmrdPpDPgR4Lt7+7H909NCQZWYbGllYCQ1AvHdHde3dIgrlZiy2gEbWTYw4BQKqsRkHWoE4pEVM3iIGbCRaTIUMQMYGi+vnIE3pojgLoXHzLx13xzt8cs//wn2PhsvxfS520n7k8sVjzd+xYT1f73vG8sYdGaqCQyjNf7dK69hvzEZh16bilSKzRmz6DoZUQ0VWPEZp3D4q54MX2MZypcGBQUFvGG0wduXBjcv1eNqZwH27k6G+eQRTC47gLBxkxEWKgh3AQ7b5nDvs5hFr+/CzBgRcJzDwYJf4G0REQPrds1ErIiA62jeUQibXYTzSrFtcQq6Pt2JyxnPIMXAGlmOk0imcZHNO1Foq+VUCdko3Ua8ywdR8JJcxUuN4nXYNSOS2o7CtFjwrjdjZ6EN6swM3sT85YtzkBN9DafP6QFdEMaP1aDRfgAv/k0QvCD/+dl4YYI7v6P3JsJxFZtsx1Ap2oAU7LTF4UciArqxt/QI1ojIG2QxfTrNciHHNGJTVhayhNWeNcE8V3DmlmIrPWSn3d2fZe9AyuKtKJU5Ttp7qF7sDCsGdsi8Imx0bUTzWcCQ8CiyVTVdxTNJcAcaazf6UINVMFDbRDTLHOuv8aE67zCMCTm96xM8tKgKXwZp0HG4gq5PImreLGyYOvgYtbHxL0y4ivcWvUrjJKvrImGdfXAqvBTsYEKeO65w1jbrkWMbXg1mMjz2THUHg2ecA/MYcpc6cSgmBjFkFosF20qsKP1IYhTNToHxbC2Wb3X3x2ytQ6PDiITHczzytdlpXB3181wRCKZ/W/7SCIcxFTOXSxzGL55I8+rsEbz6SbAUq2rw/Gy8UiNbGshBb4CNxajg+ckiw9gyJPokDP16gd+WvYIfv3UDUXQP/EGFJNH1N8hbVIGSQ17GT0vH9GjgnwersXbiJBo3CZFJGWi/1isIEj+/cCwS0IH3bK28n/Gq//gFjnbrkfYE26nd8Ha/ipjyyYh52TzjGhxrcQDjnkRVZSUqK7ehbJ4LOqMJIRrWnw2ziRLFZ6P2fdZfid27d6Py/UI8Hk6F5XyivjbEhFCtZz39x004RSVik4p47HIVg2l55kQFr+Fy5eA+VQ2en92LUkPkEzV0EUboVPmHfn23x0GRGTAYg/i1rZwE/Iz1GxCSmAid1sv4aB0i0IvOKxZoVf20s/F7k59HvJGW7+4+/MtkUMbD2InzV4kUHoyfirHyePlaHcsY9DQ7OLSwl1mRmZmJzNozFBuRurQKVVV/wio+IehG6b+j8S2Jc4tZf/MhIw2NIDvKPqfccclgkzO3fBLiHA3YvzlY6vdHje8JXdREBPvyyxVZuCAp/K/gNK2QWIYeGt5AgvF4ePBpz9SEmvjSZnm7RDzAvThDoo5PY0voBzjfRW+mB6ajiHFuMVOoRskjKiqx2zQI3fwPyhmHSauW49EEIxynmrBPL/cPs4ZcwSP3/9m+vU7HHH4THu0KRHz6Ci27hjAkqDgu13hYfkCcKw782aN9cJPhw8zMRfn27SjPocvgcOkBLosHbQvoPP8B/dRi074G2vMexpINJWyAgtzy7diwQgTeELwZ+xsdMKbOwsPGMzhcalfdpJ9q+BuZk1H3+2z8/aVHRAPhyLc40R2C9Ccn42nRxHjPJYeIQMI7b7aiFWMwXzX26WVJSDf0ov5wgy8CublMYfU6fLuvQX2Li5bWPdizR9jSR9BZOw3L3pTG6+xlWDCNZmvsLDeHbElqB75eL/J4radHbUMLHV8IbSewhWabul+/bxXmT/1okBqd+Gq94JFxuAbLfwf8QJ/0upiX24PaUbziY9S77sNKJjSz2X2o+5odgKQZxXia8K+wMK8BrdHjJA7ZysRreDdvC0rq3fvoUF6G8jkzLy+PNwwFZ08XLlx2n8YYIswWhNMe7kY/HN914JqIJETAbAmnnYAw0IOui5ehv22cCoLTG2GGZVCSlxr9DnzX0Q/T/ZEI87Jn+eUvDW52orutFf1RD8EUKf3WX0I/+i4cx3X+ziSEJ2LNmmfxlKsFGetPqPZJB3pbv6Hjkow4osZguHd19A+53CtiLly4kDeMNtzJPxv52fK5WHBpH+hjqoSsqTiQa8bFz99BQY1a9P8NX6ydz70vS3IAvmLAiYT0+fxhcyMh//3XMlgr/SekGsrMtFqtvGG04U7OTJfjFK5coOO3CqGx6Qj18/e6x9Yt4F6ZmVqtVtlMA94/HsZEmBLTMWbCE4pnQg53/HC8VuveeRUx09LSeGfARpZNe3CsUFAlZn5+Pr1rQjmBIeDvfm8I0aF4zoM8BoD/AMMMBVRihRznAAAAAElFTkSuQmCC;" vertex="1" parent="1">
          <mxGeometry x="140" y="400" width="150" height="37.82" as="geometry" />
        </mxCell>
        <mxCell id="h6_h1Xozg2ynOmpZFOEC-6" value="" style="shape=image;verticalLabelPosition=bottom;labelBackgroundColor=default;verticalAlign=top;aspect=fixed;imageAspect=0;image=data:image/png,iVBORw0KGgoAAAANSUhEUgAAAHoAAAAdCAYAAABlqHgGAAAAAXNSR0IArs4c6QAAAARnQU1BAACxjwv8YQUAAAAJcEhZcwAADsMAAA7DAcdvqGQAAAktSURBVGhD7VsLUFTXGf52WV67S1keZXlUUYm1BGuiRGwTg+9ERVtRJ9VUE1MVRE3aTNJpqwiCOEmqba2CjQZTfFXEaooBkhatOrY1rRXSjqap1AeiggoL6PJQ2N3+595zd+9FYDeorevsN/PPOf9//se55z9PHiobAR488lDz0oNHHKqamhpbcXExKisr0dnZycUeWEYsRm1zB+fcAz4aNb4xOBQvJUZjQJiOS0V4tbW1ra6urobVauUiDxhsEfEw33avMbFYbaiub8Hh09eREBOMYL0Pb6FEx8bGrmYV6aj2lGJpCR8uJNpV/Yep7LBYUX/rNsYPNQoyBuGMlpQkeHj35z+pauCcCDUTeujRIwutajkUt26mIIeHd29eDs+KfoRJDs87+p4QjZ//5Jv4IeceZqjZs0o+Czy8M74/JXcits9gfCfxHbwtFtuzKOn3PV7feTnsK7prg8t86jrs3v0eVkzpoz2H+/BVWPpqOa5/bRKOreiHUJIMfY3q2WG4sWMf1opK9zGeiHvlhTNamgV9KoXbnZVueS7qu32pgbfxNpYvz0Jc8S2EaA2wVVH9O+9i2WcR8HLZz4Mv5VDNmTNHKekGKT/bg3GRnBFwBUfmvomtU9OxbX4ctFwqgrexatf21jPYtTAHpZyV2huP7kJTwjzECYqiPe6Kycx3YWGO3VpE6nrsGRvFGdJpbYVW2+jog4AkpG+T/Iu4cnQu3tzCmW7Q+49AB+CX6UMwwnYTF6x3gJZQDAxrQUn6n/AO1+gd3N6Ps+iEuV0DXP03prx/kcsIT4/ER1ODoecs2k3IyzmJQs46w/Gc53nNhVu3kOTACuQlJiKRU+klA0Jpq7YdXIEZZdXkxoyKXKk9BZuY7ZR05FMSrZV5DruGOMzbsx4pkn+rhfYCIGpsMiw7lfZso6guk2REFEcbNw/rU7ktUVJ6PiXZIIudiF1VfIeRYthSsH7PPAyocvQjMbcChrF7FL5cp2hsoCQF/z0Ljy//HPUqDf6RSfXtzRiT8wx+1K2NnOKwM4eS3FiJx18gO4HO4gYl3WaxOPSefkpIsu3MH+x6+xuDscylGCLJISRaDiU/DaGBVJgacCwyEpFEERER2JaWjPQPSe7ljyBf8ZjXBEjterCfsKZOiIPOXIHdmUcFOaNtS0pRjSgkrJom2EioLkvGqkNK+82piViaL8YT7PMPocIMGEKSRCOkYlycDuaKXcg6JtoyKr9h4u0iklYlIIr1I+MY90/+jmXh+CWaYINT7xoQ5/xZpC3LwqwPRiE4XFxr6mCqf3YEz76wF2uc2M9ZaKT1XI/92ecQPHgUgh5LoLIT9S1iu6T/45Eh0LdcwNZ32wU9RuuyK3GO1veYhQMEHQZn/ZVgP6MlUvK/w8kqGt1+k1BUWIjCwm1YNdUGjc4AXxXX545oecrskxBiIFljA8r9VNyXleyuo4nc6QIjRBk3VvvK/PH4Gl043thUiL1791Jcin1gIUbQuNr7NyUELITJVG63ZaRSqUSnnI8M1AH6EUgpLhL8CP72FWNyf6YjriDJlpFzXgNN2Ej4+jC+ipL+W+SwNnUQtDGOM9qhr+T767xpq7+DywatrN2LDlHqD9VFPhrh7JdPNy3Yp9fYbdUGNUw0IQJ0/nZZb/2Vw8k7Wo2yVckYPXo0Rpeys0OHoS8Xoajo18iQFla3oAwKSVR1CeAlfA/7oN6xBL8oKsJ4wynkstgC5eIUTRI7eAiVqvdPEEJVl3AfXSglV1TqM7zhEx4JOl1dh9BptTgOPYISxgqVV5fxo0jChFAm0RU4PaNVfgZhu4vYmsYHqAQXKeED46eJOtyR0q4YdY0kDArDNIU8CkG0Ks2mGrtMhFyHKO2rtMGbcWpHJo6w2AIF8AHlOgfrIG7SMjtGgszRnxoTzY7oJ5Ft9yMjvbfS9n9AF5rbpQ4q5FzI+SpcaSb2S1rMVejpEUoXypvNzTJZzySHkxU9HZkFBchkR6qPXhycxf3xZWIb6ooFDVw0UUr0CI4WWRFq5H10Cmb9MMzKnM5lQNqGCehH0+T4yhIu6QHnGwSfYUP87R2cnjkbT9ivnwSvPPyL7oH9JmxAGhdRBGyY0I/XRZSsPE4Rv4LxBZn0NTIs3YACWd8eCGaPwYm3k1C+eBAXAL85fQM3teF4RSZ7cfEQjFQ8Xbyx9vgF0jNigUxvxRvRGIgbOLRRdjN3EaqZM2fa2LnGZsDdpQ2T03dg0ZPyEQYulT6DxVvCEeBDep2tmJRRhCXsABVwGYdn/wCbSd40fg2KX4t3PA/Mp7DpuRUojwyAN/M/LQMFrzwB06HZeP1XsrjWdpgW5eGPSY5LR8s/y/D5oKkYcr4AC7JLBL2Oljrqx58x3T7JavBxqQWTk9Qon/U6tgj+7qCl7jms/f1yxCs+w4zK915Czscq2fc6ys7hi1B3s/Mu+RcqZz2LT0YZcOvsaUzMvyDKO+rROiwRf1kwCAG8J6z9TNRQxF3pXQ+t5/HO/HLseyxKuAv0GJeXf/2pYyILieb1bmFta8S1Jr7dcASERoB2PTuUOgEIpZuz0GxpQ+P1Jtit/Q0wGhyrVGr37uJPQIcZtfW3OAP4GULhd7se7b5GBPk7NqIOcy0cagFYtGU/vjfwP3j/5TWO9zqdeW1N19DUxlkBfjCEBcGf7kHd4b78KVH7VTRduQxv43Do5B/Y2YCW6nOQvHsbF+DDzTGwnTiAuR/0rAd9DAKNIU7OdwcUiU5OTu410Q81lm/EzrBDmJ9xkAuWYuOBiTB8mo952WXOzqVe8eD+ZiwGm7P742rGEeRwyXeXTMb3Y5px4NUTeNv+Q5R7x9/WfYvX3D3RdM4emMjeSQ6YKzZh+srDilXfFzy4RA9AbtYwJCjOZBP2zSzCWzFf8AbvBIpEz5gxw30TTdt7XYP8zcW2+DAY/O4tyQwPLtEduHPtU7Qquh2FAEpyD6dIn3Fy/bd5jT+vGNyy9NbDaDQiPDzcXgb6iieYS/b/l1IDH+NIBA56CoYYqYxkieDt96ek+5gCTt/RHnJPGh3r+AtQBrVWqxUaGDzlo1HqfDVY8nysUJfgVVJSsrq5uRm1tbWwWCxc7IE1YgRutbvXeLD/1Bj39SiseTEegyPZb6MkAP8FowhGEtQQ+RIAAAAASUVORK5CYII=;" vertex="1" parent="1">
          <mxGeometry x="140" y="451" width="150" height="35.66" as="geometry" />
        </mxCell>
        <mxCell id="h6_h1Xozg2ynOmpZFOEC-8" value="FrontEnd" style="verticalAlign=top;align=left;spacingTop=8;spacingLeft=2;spacingRight=12;shape=cube;size=10;direction=south;fontStyle=4;html=1;whiteSpace=wrap;" vertex="1" parent="1">
          <mxGeometry x="400" y="260" width="190" height="180" as="geometry" />
        </mxCell>
        <mxCell id="h6_h1Xozg2ynOmpZFOEC-9" value="" style="shape=image;verticalLabelPosition=bottom;labelBackgroundColor=default;verticalAlign=top;aspect=fixed;imageAspect=0;image=data:image/png,iVBORw0KGgoAAAANSUhEUgAAAIIAAAAdCAYAAABmM7RrAAAAAXNSR0IArs4c6QAAAARnQU1BAACxjwv8YQUAAAAJcEhZcwAADsMAAA7DAcdvqGQAAAj/SURBVGhD7Vp7UFTXHf522WWBXd7v5aGpz5TIVPFRE8fKw0wtPhKdzpT4KBOt1szYZDTNH1GTJuK0Y9KRRtROBjUz4oDVID5YrE6bOOl0DIzESQKp2soCCUhEQNjwEpb+zrnn3r13AQFrrMPuN/Pj3N93vvO49/zuedxFN0CAFx4PvUi98HBoZoT6+nqUlJTg6tWr6O/vF+z4Q8YP4/AsrgnPg+BjgGnSbJif+TkMkRMEKUGZEerq6pCTk4MrV66M6yDwaPT3oef6ZbQe246+b+2ClKAEQnFxMbq6usAmCKfT6U3Hcdrf3QnHJ4Vi5CUogcCWAwYmVMPrj0+/+z+VPJWhBIIcLV7zDINTu/wrgcAzVfD6nuVrAsFrnmVqKIHw2GLjHhQU7MEG4Y4GG/YUoOD91/Ez4T8wluYhZvUK4TxGmPs2Yl4vgZVbHkIE/b9AMyO47xMeC58fZfvhHC5/CJ8SuiEqM0q9xs/Mg3Xr2zAz/56TTlxSnnn1McS8sHyw/nv1lyN8Kw223B+evwLhC5LRX/0ejqyZhw/WZsOu6MdWvxpDzgjuov+3744Ry4tUxpjaO5GNI5+FIHj7aUQnkh+0GLF0HRzwMc4fKOaSMdVHeHC/GF9um4cjW19Fi2AwLwUGvw6037yIxdOjycwIouCI2HYa8Zu3cMlY22NQAkGOlscuFX0eGK2eUqmA9i0YdWryR8ZZCoY1c3HHmQijpRnX6PrI7n2YEagbfT0PJdUhKiYKGbEmGGQ+PAQ+FBbOCmlAZX0Pe059zhHq06ZqKJ+Ys7KyOHFfbHoXhYuAjz4GUhfFCRLorCrA+pw4vFuYCoVt+AhZ294XjoTMHYewJilAeHK5UuEJ8DZcdUuox9+yXkO+8GjjoG0Lnag6uh45Nsnb8E4h0kM+x9Ff/R6C0mDET8zLDiDhRwnoabLTA9LDEENTg/0wvjl6SgiGR+DaIoRMNAuP4Tt0X/gFbn8KhG0+CzMuov7geyLvN4jZuRg+6rp521Rq10t8FuBlLJ+j7Z3t6Ji3G3HPJmumcSeV7bK8CHOEIAQYP1J/E3aeFVdjPTXwKIpD6pQqLFy4UDJbLQKS1qCwcAqqZG5hKWqtqcjfkamUzdyRT0HgRGWeS9PMyv1xo0ZTuChEpSGj+jX9W7ID+RQETpta04yktfnYsURoeAmCXGYsxgZiejPKV8/BZbsOuo5S2Oj664AXEbf2uaHLCJOCoBnXSX9YWHk15UVK+e2tHUDENITKZZZNg5G6qY9OQaBcR1AoxXUz2oXfy7ZIdObvY/4/tsJ2qYaIDjQWSPXb8k7i5q4/obGT6IbTSruM523cx9TQ7BHcMwf77G8tSjf+GVarFbGxsbDmXyOGWNsmHGQ+8VbrbbQ5AHOwlRUgbEJqkhmOymN46xLLZ3YIm9kgW+diJ9/eC81nLg2v38/VRdafTelJMNeV4tf5Ip/VlX8RlQ4zJs7KFEoJI9/PEP7xdTj8ym8RNi0aE32I1BmRTNd3d89B6b6TklDAvbw+gGaCzhYEkj6DLH1qFMIOL0H5X6R8R/V19CIM+LHkh8UlorehBr3+k2AibmDgeZhiLeitL6d5ZIj++ZiQbGHPQ0czgFR/cpAeweFmmmkIlM/aZcb4ke5XDeUpq9cO2Qb5XKmHyWxw5Rv0vBK9yQyjoj+Hb1uJHBBll4TzI05Ly0WYdHJ9BphvtcFBtxAUr9LcuaBoeP1y37m/FLREAomZKC0uwvHjx1FUVISi4vWYZWHNSe0rU8JI9zOUT3uEtBhfaU0+uQ7nD57keYGhkcoeQaNX+TU36W0NmInYN84hkcy6fAAGSyAmmKR8Y0UTBYIFPhHM3wJDJG36LpehvdMC42Q228QD/kDv3VPKnkC5FeFrn4fcvqISvmTu/XP31dDMCA8PeopZFaifrKs6nVtzeqFimcNpNJBEjso8LFiwYJA9v/2M0D0k+Jlp8Ef/iIJLsnHohdk4VFBBAw4YZ9ow8Xc2xMmfIgx70dFAY53wMrDiSfg1XMK/K8/gu/oOGGJnI2h+NC0VNego/p6G5T5QWuTRN5INoxWslldzZ25JG5+opVpNYii9Hw602F2aoeuR2zyNWzTTWKb9BBtpWWBLg9pC/HSqMqo6HpWZApA2JRJpX72G81kpyM/aiwZau43xLwuNAU11NGtYohAdn4i2ulxE++jQ/S9aMvwnwzJrMgwN1Wgyqerk90Jw89mVolHzam4EU+PRhJ7PflyopEVgxiq8uVRw2IzctATaXHyC7ezgQJqvaMuQkJ5LOTJIk04aBXrsL7sCh3kG1uW6VAzL3vwAuS8J51Fg/h8w4a0yPLHlFUHQPnBLGeKfowuDH2bQ+p0+9UmE0iGpt9X1239wcysN+kz4R9ag6xTbKgK+5a/iVoMFvpG0P3B8jWDOjgUfoqedkqCYBygrQTMjqNeRIVMyFotEqHjODNLLkHwDbDtXYF/lAJ765QmcOMEsDcGV+/DMpoN8TzAwYMT+jU/jXG0c0ng+syn4spQ9RNaIVK+x7A0sf/os7HFpQiPZuqfu4Iu9UvsyxvLtYcxpfz/473f9rvX3xo0aWg4oOFiAcPspjFV7YTsg7eC57p+f4i7bCdKb3+gr6tP74k6tdBpor/5Q044E6Q3mvGCIUOmAb3aVoI0CLEy0PSF7paaeoVI1lO8Iq1at4sR9cc+BxmaKfNrZSrHMcA8OiYTFRZK0Ec2IQKyKdHa1oqmtW3i0BIdEI9RfOynxcnTKkhCICDofNw/TpiLjIK3Q8Dr6QhAd4j/klPdQ/lWtrwdf1LTjNu1e08JEz7o78fd6NsouRMaEu+0znGhqvIMqk6ocAy/bh6QnghBtEBzhbsttXOkJwoJYE3wZMYyOPRP7jTbcFN7gdgdj0q6/iitVIKxcuZITngCP/Z9FN0zOuSCuHtUewYvHHkogsInBa55laiiBoNe7vkR5Uw9I9eyzqQtKIKSkpHCB1zzDzFPniJGXoAQC+/XRz8+Pixi86fhN9SZ/hGdkc1+GcmpgsNvtKCwsREVFBfr6+gQ7/uCppwadwQjL9PmIyFgHU8wPBMsA/BfgV0MOPGdFyAAAAABJRU5ErkJggg==;" vertex="1" parent="1">
          <mxGeometry x="410" y="300" width="150" height="33.46" as="geometry" />
        </mxCell>
        <mxCell id="h6_h1Xozg2ynOmpZFOEC-10" value="" style="shape=image;verticalLabelPosition=bottom;labelBackgroundColor=default;verticalAlign=top;aspect=fixed;imageAspect=0;image=data:image/png,iVBORw0KGgoAAAANSUhEUgAAAHgAAAAcCAYAAACqAXueAAAAAXNSR0IArs4c6QAAAARnQU1BAACxjwv8YQUAAAAJcEhZcwAADsMAAA7DAcdvqGQAAAjtSURBVGhD7VoLUJTXFf7YXViWXWCX98L6oAImozIoAeKUMYVo6iM+otOZUvMwtYCmk2bG2HYS0LSRdsaJGW0imDBinAmpGlN8svjo1Dg+2kAD1hQU0bALBkJF5LESRHa357///ffBU1qaFNxvOHP/75xzH/znnnPvLnjZCfBgwkLGWw8mKBwZfPPmTRw5cgSVlZWwWq3MOB6R9fgUxHRWc/bwwC5XQBWbBPXcH0EeOplreQY3NDQgLy8PFRUV4zq4DzO8rH3oufpXtH2Ug75/mbiWB7ikpATd3d0Qktlms3nacdxae+6i69w+FlwBLMCXLl1iRHBwhYePT37vRiVrBbAAS9H3yMQQ2JzHLAswU7rAwycOdwTYIxNLJLAAP4zQZn+E4GRO/p+Q/CYiXj+MSCY7oeXq/xSODO5/DrvxzK0oLi7G1swh7AtfQ2FxIV5bKPJFrxeSv5MP8P+OuDb7MCJWL2f8Xp8dvVbBthzBGyjYSWM/3/B8Gc1LQdzwJtQOO60lNR7WmnfwwbMp2PvcGpgc/qMbX8KADHY1CmB8Zw3M9BwVkzmoPTN9Bvws11BxXOTHc1bhiSdWIpdzV3yX3JSXgq9ULyIqJx9+xL0T/0jPL8JetRhfXBB9xnI+AUPzEvzz1RR8sGEj2rgGKYlQ+Hah88vTWPBIOIkaAclboM85gvClosto52MBlqI/ZKt4D3+usggRRuYAeyZiIgHLjSqUeYl6+GoRGamDL+dDjvstt/5BYej4fTJlx2VYwzVQ3NlLz8koPxaAcPmDjzM2rRfCIsIwX6+EQtIHayGncNsqxEAxP6sNwp34PlWc4cdzbyWwryozMjI4HRq2Bb9G0U8T0P5pBn75PlcKyH4L+36gxaU9a7H1NC8I2dtIp0P1h2uRZxRVDEwfxQmhuxrFa/NQymnW2/uQhjPIeLVQ0mDbvjToqouxNo97sTGAMxkbIXm5YqSvKoPWH4M6pAHdTTrauDJowoCeUz/Grc+4wzDwf24/tFPVnAm46+jLxsVpNO56h9t+gYhNCyA37cFXHx4SVUsLMCmBem15iWUt66O5jPa3ctCV8jtEPRXvVlJtpmuwTo2DN+cinHMOh0mbjrHWcQaPJF5lVbhOSWyIzXLTZ8UaKH2vo6rMy6lnO4h2ns3ptyR3NwXGhtJ58zCPS+ntGXh2dy6WcB9zK00QGYsszu3ZsRC2g9/UBIfPkhC6dlhaYZZ8RiE6eqG+d/6APatfQKfcC30XFtLzGdif2o/QlMH7SCIGtxXXVidRH1HKa8gWKto773QBIdOhk/osnc4CIwtPhL80RoCONnUrOjnvFVKTPrP2Cfz8BhjP1pOiC83F4vjGnT/HxeIK9JK2/aw070JcPs/nGEYkODaMq1LAAC4zouqGUKZjkS1wZs9GLEXAfPENGGXu/u7IRtoMNczGdSiKjKTyHQm9Xo+iE5WwqKciYbE4nrHiOizQIYTzbNo8lgYz+USTjzD+00iIVtNxUInSkdY7CK/fkoSy909i/nQ1fEgnUwXS87sop5f2j3PD95f5UeZ2t8F/ejj1CceTcWEI2rMI5R+LdkvNNQpEEPC4yIOiJqO3qR69qmlQks5ufwZKvQa9jeWUg4OsT65EvEYIhxdVGHH8+AAlokMUpAF81FTO2dyBiFAM0r8fl8AC7Fq7JRnIvVDKAmBAbDa3U4YZYMLVAqVQ653+0lx2zhcFs+v+lMWlKNm/H/tJDhw4gJLMOdBA7McWaLxFpUsNrUHgwuax4PqJ01Q51Iie8zT56RFI77ntVqn7fLz/SNxfF4qZGvH3bcz7IWrOCzY5psT6O85gV39XXv8lZZffbOg3H8dkkshldig0/piiFO3eFS0UYA3kIQJ/GYpQuiz9rQyd3Rp4x6yg8ajSqYDejkOOM9f5mvh8kkLi1NIPx/Dr688luJb8ESErqxTLdPJmCJe6dUJ5Ntdil5AOw4EWbqet8fm7qUhN7S/PIEc8LgB5Pq7QdX1S3DpgfRwM5nPYdPIEKmlSdXQCli4JpRwx4crOUS17UAQGi5nwoAg8vAZFP3kMRbxkes82YupvjIhaLtqh2I6uJorhpFeA5Y/Ct+ksrlcexd3GLij0jyFgbjiV7Hp0lfz3ax8N2GxsNz2IyEqRe94EettIWLIOcRRfU20BvPv7saFdxj36NWWmBo+kZbHS7C5a+FJ5F329UVBL42tDsJk2j6n2PbJR5fh7HZXp7yFt/jSoaUMVeEv+36Io/ZAeG4r0K7/CiYxE7M7YjqZuCrThFe6jQEsDZTnd2sINk9HesIOqghd6rlLpVsVAMycGiqYatChdxuTviYgbF54G+LjqHkAkjHI7yaDaVUs5pMasF9JZea7NHyl9CZSZpyopC2c+jx0vcR3DUryxdwfWcybAp7EDFk08ZhqcY8uMm3DOrIYhis7f9iZ2fv5PsaIQ0b8tw5Q1q7iC7k8vl8Gwgh4UvphF5+OTcY9CRx+me+84//Ya2HqHgjkbqtB6fHNIvPv6lG/E100a+ITS+Wu5iUCmHQUuNKOHGh+dcy2jgSODXev4sK0iH7XCtx4CKJvyFYP7iZC4N0pzl+H7pSZEpR3EwYOSPI+Zt7/ADtf+xypQR8cAzFeRT5nK9DJf7BIym8p8XfnRQecb05Y+ewqwUivp6+rqqSyXscCLshDe1dthLPjE2e/iZ+gQblCUqc0+fDyZD26bxdtxZ82f3OYRIWYc03MNKZx+sm2o+LQeimk/4/MeRMRcF/sQrQS6q9jtq1aNbnfctzSjlT4VwD8Eeo37pzSG+xY0t96HNkwHlZzrBDC90NEFA8aw4Zv2FrQr+umHGrMfxuRfdnq68ZfGuwiNCMYsf17kuM4VbnYGG1qab6NaqUV6kMvaWd8+zIgOQLjLud/Rdguf3wtAql4pVqUh/NznVg60D4JpW06ylgV45cqVjEwEPKz/k9UfMXmnWDvKM9iD8QbHGeyRiSUSWIBlMplD6WknQCtzXlJYgBMTE5nBIxND/OKSWHAFsAALf01SqVTMKMDTjt9WpvRDyPw1jAPAvwG320n6/3u+yAAAAABJRU5ErkJggg==;" vertex="1" parent="1">
          <mxGeometry x="410" y="350" width="150" height="35" as="geometry" />
        </mxCell>
        <mxCell id="h6_h1Xozg2ynOmpZFOEC-11" value="" style="shape=image;verticalLabelPosition=bottom;labelBackgroundColor=default;verticalAlign=top;aspect=fixed;imageAspect=0;image=data:image/png,iVBORw0KGgoAAAANSUhEUgAAAKUAAAAeCAYAAABNJt5sAAAAAXNSR0IArs4c6QAAAARnQU1BAACxjwv8YQUAAAAJcEhZcwAADsMAAA7DAcdvqGQAAAwcSURBVHhe7VxrVFTXFf4GhscwwAAOzwEBLdoWtaiIqbEaNW0Qdfla+WGC1qwuhdjV/EjyowJqjLbL5mWa4IOgTdaKmhjJIigvU1eaVJMmEsA0jQYfFdBoVBCUMSCPme5z7jl3LjA8jIpJ1/3WbM/Z++x9zj737rv3mQtocBKgQ8cPCB6i1aHjBwM9KHX84KCW7/Pnz6OoqAjHjh1DZ2cnmNhgMOjtELQ502MQeOXEoPX/b1qjF3xGToTflIdhDI3lAcnAM2V9fT02btyIiooKtLe3cwOddLrr1NmB1q//haY9a9B5uZYHJAMPysLCQrS2tnJFBr3V26FsHW030HL4Ld5n4EFZXV3NFXTS6V7RzTNVPCAZeFA6HA7O6NBxz+DoEh0RlO4iVyedhpokeFAySKHe6u29bBnU8s2Eett/m7o6D7teW43UQerzNnU18t58E39ZMUj9flrLyl0YljJ4/SFrJ61HRNZ7iFxdiKisXFgGa9ejlVAzZb+YnYX83buRn50mBD2xAs/R+HMrWT8NWfm7sTs/i3p3GcKv3bufIw96QvjRr9+3BmcXXTgnXUDBDwrsgivN90JwZhEi0xfwfjut386PXgtgfWoPrJO5eAjB1i2C7akN8BcSLps6Dl3HX8EbSycTLYfr5c73w+DOlAcqcNIO+MUmIc3NeFr2JNhQh+OvMv4AchZNx/RFOTjgRveOEt1p5V7bMIkCr9vY7CTE+fFBOkNr5LdBdKX4h5heY32SYsX/dTs+AJ3dMBnfmB6DLTsXJprIa+Ie6j8GZ/VsfHnEvc3do3fx5ZOT8fqTT6NRylImwOjbgutn3seDo8OJ/BCYsgGR2UUIm6u1HZgkBpcpPcux/pM6wByHpF5JZw6SYs1A/UnkeTPeA6YQG2whpkFOfruwo6q6DuafPwCeqAVWzkikG1dFj8qPGxZrOK7/mQIh/T/oCveHsekN6k9GRXEQIoxCacjggYiocPw6yhf8VjNYg+GJq3BWau42JQuW0Ds6FfZWoWZKVtcl9eYN8NleQzfYjDiKym7jqb9AHMVkXc02GIVsxQt7sCc/G2mCV/RX4Pk9JFcpH9mprnFu88KKXvqs9KrrrXye7J7HCslTy2CsPoQqu5Ituf3sbEyy2XG6qlE8GBp/xXi+1pcdLl/5uJg/LTvfpUOUPpYVLeWplrpu9zVbMy58ZGVfyrrbD8zH5XyGx3YlAhda0GZZTv0PMGl63/paPihzP6JztLQFwXx8PqxP70dU+nyXPmW4KNIJpwwn7f3T30L00xvhr51P8kx//HDaXCyszyjzR6W/gPCHkuBFUr+Jcs23YE1R7Bn15a+EGpRauOW9t6OmnpJlfBLmaMbnToinUK1DzTb12UEXm9/ZJcoWdWfnYOfbM+AonYZp0wSVNiJx2U6soczL5q9roPNBVAIymD6bPzOBijJLzq715lqDKDE2oE6zPofnQXxxxg5z4gxuP2d8HMz1R7Cu3KCMa5G2BjuWsiy6RfWlpDER6W+/yG0Z2PoZL72N9MRGlEh/ibZUk4+KgtLSXG73tXQH31dfcHt9NdDyIauK4dv0V/zt0d/iuqcBnR+nUv8fcP5mL8LuU3T6sme2/uYKHH10EtkodPJCMJyT2fi7aGmmAAhPRoDQD0wYyQPCy/YHzjN4+FHGaf4GDYLvYCnQ0QWeBI88hdKPzlKnBRd3KfOX5v4en+yqQDtJmz+S66bi30eYgYKB9q8G5cDkhW01rITHUwmXMird8WbYqw5hm5dLV0aj5FfOSoS5rhiZ+ZGIjBSU/3fKbpR5J8zhOiUVp6kQB8Mq5l6ZEA17XR3s6npirTOVKBHz0kcsZEDpmsP0aNiQkLkSM8Y4UXUwD75KmiRIfeGLvQq7132o+rIjo5jbpqxRfHGm5SAlirJ/6ePYIf0lChDlsttcA+yLPtJItbsV+u+zdKO3l2PWKD9eMj18A6n/Cj575CF8cdi9jUIL6V6RwbUGBI8KIxuF2jal4ituZ8DFWgooUzA8hL53hD+aL5As9KcI4bIn4BNGwVW7GV5yXr4ZAut7+mCsmV1kA8zDlPnHBngjbpiRJJTHzHLdQIR7Cvt+SEK9bYOB91alhMdPmKsI5oxHvJnKZHW564zRC3MRSgkOsXNRUrgXe/cKKvwdJlA1lM54lF2hk4kZQTGMy8AoVn7fP4TTdIOV9Wyw0EW+eqXMrdMeptdwqMqO6AdmwlZ3GM8cdOeR8KWpEYdMrlm8AxrQTEnQbGG5mRBjIU/saL7kf9v7ul1Y6GaPC1R8Pf+nVJz4hPW8ED/aMsCZsgBX61uAiNlIWFeC2HXvIJwyq2WYy87S0EQZLQQeLOPelwwf01m0bjqOZgyH13wmC6PzYgucDawYDx34btkFlLVdklveayu+ZslyDJVJ4nnptp9GVamhm74CalV7qrpVuZg6dWovWpi1n+s4DLk4QXPHJGTAmTkK0RRYa8rLUHWayjI7MqRZ6fLV4kSu8mtPfD2xElvL4TCibN1h/jqitiYPPgbmjzLKFF3+MQE9xxp/nU4RoOx1D+PF8cZgkOPKeuqCgqemz30tWF2k2AoTWlCdS853q3xgiCvjDKwPtL2Wip2PJGMnL7Fm+D4kg1Pof3oU17/zh2/CQgRQ6XYcL8PlkJfRegHwsT0BZ2gwjN+dxPVPXfNLsDcffC3Jy2vHSQhpVMoG9rfHmVILpqBFd94bWw9WUg6JxqhV85RyeroSpZ5imNDbvgiXmgD/0dORERXFS1yUpg3ylec+bzoeUEgFWbGWSndtzXaYPD1Q8vkpKuEjMPPBkVQqa7CVjgl9wcOUh8cpIFZt7Su/7ce35AtCwjBPEQh/bQih7Ga/ek7h667SHhX03A9JRLu/330Fi0zc+3oMHe8dYMHMhFDMKluOHUsmUoAWURY0w5iwSFEwvocb51pg9E+GbyRV+lP7Eeg04nI9K+E/gy0mFu3njuKmJiN3X80Nf5v+M6iZktFgotmr7BhO0R2LnrGMzhN2nKooYb8p3F2fTy2zkwG5ZRTI5rFYupmyoNBlNHft69i8ysUbzzXD7j8OY6JrUZPrxe0NJTk4XGdGtI0eADpwq2cbIvnNVuUpW5ojImAW51uHg1pFQ/AQvozD4nXzhH9OZG6ehRjKsYezDihzFX9Oe/THuIfXYB7jGc1Zi8XjlFfGnKd9varuK5PL5HxyX5znFoqNHJd0R/kFeYh7phSxyxcJ2SKE//EdRPyS+j5+PDhnLBvOX3q3NuwT9tS/1giEJcHPWYMbnyl+BhaW4cINKuGhwM1rheo1Z+tJSF4NKckz3Y8voo1E3sELFV5Qv/4TSahBqUW/vGcJL6kc9lNUuj166feEV9lazL+/GLW2WSgoKMC+fft4u2xMI77arJm/uJIHPCgjbpHJztOkZFDKXaeOFnNR7/X68ZfDxXszX16phHPMMu4Do5mWSuTen4ltMrt5lCBnfi4qnWOxTPr7sAP/pDMrHxfz87n4vmaqc2n31Rd6+ndHePbTJkKX+EEBsA/s92ZNqeWIX1+GEc+WY0TqeLR+OBEVBa63Et4FX1H2BNrrj6JVfpHzeQ8dlEGBs2gpcHd/e/Ld4fR8ERUfnoVx5Aq+bvz6fYicIgYJA+2HkpzTuXjxYsEODo7WJlxqpmfBFITwoN4vyTvsF9HQ2XOsA/aLDXRs1iIA1kh//k5LgQOtzZfQbLQi0l9zuO6w42JDB4LCgqmkCxlDVyuaLrfBt6dchbJmR1C4Wk45uF0zf5o53O5D+NIqWNKx+rSh4abvre1LrOVljYR2S1pkT4umLx1fC+57ou07fHDuBkIjhtE3YMW79pbrOPLtTd6XGBETijhfwXB0oPZUM1o0dgyKrRETE/xgETKGa1evoPJmIKZG+ihfAvm6nUiMp/Ou9ouX8EeBT+9xNxi54SBv1aBk0cr+dkJC54eOZ0Ep/0ZH4k7Oz/Bj4H+y8X3e548GE0gaqO7rvM7fLV6iW8XSDjDovM5rcbd5CTUomYKkOxn9Oq/zg+INrvzIe8nJyZzRoeNewTw6RfREUC5ZsgQmk6lb9Oqk01CRwccP1geX84Bk4EEZHx+PTZs2YcqUKTAale/tTFkLndd5Le4Ez/6HjIAxv8LwjJfhEzlSjAD/AyRP8V8G7kYlAAAAAElFTkSuQmCC;" vertex="1" parent="1">
          <mxGeometry x="410" y="400" width="150" height="27.27" as="geometry" />
        </mxCell>
        <mxCell id="h6_h1Xozg2ynOmpZFOEC-13" value="" style="endArrow=classic;html=1;rounded=0;entryX=0.335;entryY=1.02;entryDx=0;entryDy=0;entryPerimeter=0;" edge="1" parent="1" target="h6_h1Xozg2ynOmpZFOEC-8">
          <mxGeometry width="50" height="50" relative="1" as="geometry">
            <mxPoint x="310" y="320" as="sourcePoint" />
            <mxPoint x="360" y="270" as="targetPoint" />
          </mxGeometry>
        </mxCell>
        <mxCell id="h6_h1Xozg2ynOmpZFOEC-14" value="" style="endArrow=classic;html=1;rounded=0;entryX=0.583;entryY=-0.005;entryDx=0;entryDy=0;entryPerimeter=0;" edge="1" parent="1" target="h6_h1Xozg2ynOmpZFOEC-2">
          <mxGeometry width="50" height="50" relative="1" as="geometry">
            <mxPoint x="400" y="400" as="sourcePoint" />
            <mxPoint x="450" y="350" as="targetPoint" />
          </mxGeometry>
        </mxCell>
        <mxCell id="h6_h1Xozg2ynOmpZFOEC-15" value="USER&lt;div&gt;&lt;br&gt;&lt;/div&gt;" style="shape=umlActor;verticalLabelPosition=bottom;verticalAlign=top;html=1;outlineConnect=0;" vertex="1" parent="1">
          <mxGeometry x="440" y="30" width="80" height="120" as="geometry" />
        </mxCell>
        <mxCell id="h6_h1Xozg2ynOmpZFOEC-18" value="" style="endArrow=classic;html=1;rounded=0;entryX=-0.007;entryY=0.583;entryDx=0;entryDy=0;entryPerimeter=0;" edge="1" parent="1" target="h6_h1Xozg2ynOmpZFOEC-8">
          <mxGeometry width="50" height="50" relative="1" as="geometry">
            <mxPoint x="480" y="170" as="sourcePoint" />
            <mxPoint x="530" y="110" as="targetPoint" />
          </mxGeometry>
        </mxCell>
      </root>
    </mxGraphModel>
  </diagram>
</mxfile>
